{"title":"Terminator (1984) [miniHD.1080p.AC3] [Lektor PL]","uid":9854162,"size":2037851966,"categoryP":"video","categoryS":"hd___movies","magnet":"?xt=urn:btih:6e6dc81e9d36ac576383d224f039314975785ec8&amp;dn=Terminator+%281984%29+%5BminiHD.1080p.AC3%5D+%5BLektor+PL%5D&amp;tr=udp%3A%2F%2Ftracker.openbittorrent.com%3A80&amp;tr=udp%3A%2F%2Fopen.demonii.com%3A1337&amp;tr=udp%3A%2F%2Ftracker.coppersurfer.tk%3A6969&amp;tr=udp%3A%2F%2Fexodus.desync.com%3A6969","seeders":2,"leechers":0,"uploader":"gixer1000k9","files":-1,"time":1396203726,"description":"Rok 2029. Spustoszonym nuklearnÄ… wojnÄ… Å›wiatem rzÄ…dzÄ… roboty, rodzaj ludzki zszedÅ‚ do podziemia, a Los Angeles to jedno wielkie gruzowisko. Jednak ludzie przygotowujÄ… siÄ™ do buntu przeciw wszechwÅ‚adnym maszynom-tyranom. Ich wysÅ‚annik (Michael Biehn) wraca do Los Angeles roku 1984. Musi za wszelkÄ… cenÄ™ uniemoÅ¼liwiÄ‡ niezniszczalnemu cyborgowi z XXI wieku, terminatorowi (Arnold Schwarzenegger), zamordowanie Sary Connor (Linda Hamilton), przyszÅ‚ej matki lidera rewolucji. Uzbrojony po zÄ™by i pozbawiony jakichkolwiek uczuÄ‡ terminator urzÄ…dza krwawe polowanie na dziewczynÄ™.\n\n &lt;a href=&quot;\nhttp://i.imgur.com/wnpa5RB.jpg&quot; rel=&quot;nofollow&quot; target=&quot;_NEW&quot;&gt;\nhttp://i.imgur.com/wnpa5RB.jpg&lt;/a&gt;\n &lt;a href=&quot;\nhttp://i.imgur.com/qrfzcbO.jpg&quot; rel=&quot;nofollow&quot; target=&quot;_NEW&quot;&gt;\nhttp://i.imgur.com/qrfzcbO.jpg&lt;/a&gt;\n &lt;a href=&quot;\nhttp://i.imgur.com/F049tbS.jpg&quot; rel=&quot;nofollow&quot; target=&quot;_NEW&quot;&gt;\nhttp://i.imgur.com/F049tbS.jpg&lt;/a&gt;\n &lt;a href=&quot;\nhttp://i.imgur.com/MgKJzu3.jpg&quot; rel=&quot;nofollow&quot; target=&quot;_NEW&quot;&gt;\nhttp://i.imgur.com/MgKJzu3.jpg&lt;/a&gt;\n &lt;a href=&quot;\nhttp://i.imgur.com/gUXpo1w.jpg&quot; rel=&quot;nofollow&quot; target=&quot;_NEW&quot;&gt;\nhttp://i.imgur.com/gUXpo1w.jpg&lt;/a&gt;\n\n\nDane Techniczne:\n\nFormat                                   : Matroska\nFormat version                           : Version 2\nFile size                                : 1.90 GiB\nDuration                                 : 1h 47mn\nOverall bit rate                         : 2 532 Kbps\nMovie name                               : Terminator (1984) (miniHD-gixerk9)\nEncoded date                             : UTC 2014-03-30 15:05:57\nWriting application                      : mkvmerge v5.7.0 ('The Whirlwind') built on Jul  8 2012 20:08:51\nWriting library                          : libebml v1.2.3 + libmatroska v1.3.0\n\nVideo\nID                                       : 1\nFormat                                   : AVC\nFormat/Info                              : Advanced Video Codec\nFormat profile                           : &lt;a class=&quot;__cf_email__&quot; href=&quot;/cdn-cgi/l/email-protection&quot; data-cfemail=&quot;551d3c323d1519617b64&quot;&gt;[email&amp;#160;protected]&lt;/a&gt;&lt;script cf-hash='f9e31' type=&quot;text/javascript&quot;&gt;\n/* &lt;![CDATA[ */!function(){try{var t=&quot;currentScript&quot;in document?document.currentScript:function(){for(var t=document.getElementsByTagName(&quot;script&quot;),e=t.length;e--;)if(t[e].getAttribute(&quot;cf-hash&quot;))return t[e]}();if(t&amp;&amp;t.previousSibling){var e,r,n,i,c=t.previousSibling,a=c.getAttribute(&quot;data-cfemail&quot;);if(a){for(e=&quot;&quot;,r=parseInt(a.substr(0,2),16),n=2;a.length-n;n+=2)i=parseInt(a.substr(n,2),16)^r,e+=String.fromCharCode(i);e=document.createTextNode(e),c.parentNode.replaceChild(e,c)}}}catch(u){}}();/* ]]&gt; */&lt;/script&gt;\nFormat settings, CABAC                   : Yes\nFormat settings, ReFrames                : 4 frames\nCodec ID                                 : V_MPEG4/ISO/AVC\nDuration                                 : 1h 47mn\nBit rate                                 : 2 187 Kbps\nWidth                                    : 1 920 pixels\nHeight                                   : 1 040 pixels\nDisplay aspect ratio                     : 1.85:1\nFrame rate mode                          : Constant\nFrame rate                               : 23.976 fps\nColor space                              : YUV\nChroma subsampling                       : 4:2:0\nBit depth                                : 8 bits\nScan type                                : Progressive\nBits/(Pixel*Frame)                       : 0.046\nStream size                              : 1.57 GiB (83%)\nWriting library                          : x264 core 142 r2409\nDefault                                  : Yes\nForced                                   : No\nColor primaries                          : BT.709\nTransfer characteristics                 : BT.709\nMatrix coefficients                      : BT.709\n\nAudio\nID                                       : 2\nFormat                                   : AC-3\nFormat/Info                              : Audio Coding 3\nMode extension                           : CM (complete main)\nFormat settings, Endianness              : Big\nCodec ID                                 : A_AC3\nDuration                                 : 1h 47mn\nBit rate mode                            : Constant\nBit rate                                 : 384 Kbps\nChannel(s)                               : 6 channels\nChannel positions                        : Front: L C R, Side: L R, LFE\nSampling rate                            : 48.0 KHz\nBit depth                                : 16 bits\nCompression mode                         : Lossy\nDelay relative to video                  : -5ms\nStream size                              : 295 MiB (15%)\nTitle                                    : Lektor PL\nLanguage                                 : Polish\nDefault                                  : Yes\nForced                                   : No","torrent":{"xt":"urn:btih:6e6dc81e9d36ac576383d224f039314975785ec8","amp;dn":"Terminator+%281984%29+%5BminiHD.1080p.AC3%5D+%5BLektor+PL%5D","amp;tr":["udp%3A%2F%2Ftracker.openbittorrent.com%3A80","udp%3A%2F%2Fopen.demonii.com%3A1337","udp%3A%2F%2Ftracker.coppersurfer.tk%3A6969","udp%3A%2F%2Fexodus.desync.com%3A6969"],"infoHash":"6e6dc81e9d36ac576383d224f039314975785ec8","infoHashBuffer":{"type":"Buffer","data":[110,109,200,30,157,54,172,87,99,131,210,36,240,57,49,73,117,120,94,200]},"announce":[],"urlList":[]}}